# xmcd
#
# Track frame offsets:
#    150
#    8714
#    29899
#    52208
#    88438
#    106677
#    148179
#    160536
#
# Disc length: 2307 seconds
#
# Revision: 21
# Processed by: cddbd v1.5.1PL2 Copyright (c) Steve Scherf et al.
# Submitted via: audiograbber 1.83.01
#
DISCID=6b090108
DTITLE=Stevie Ray Vaughan - Couldn't Stand The Weather
DYEAR=1900
DGENRE=Rock
TTITLE0=Scuttle Buttin'
TTITLE1=Couldn't Stand The Weather
TTITLE2=The Things (That) I Used To Do
TTITLE3=Voodoo Chile (Slight Return)
TTITLE4=Cold Shot
TTITLE5=Tin Pan Alley
TTITLE6=Honey Bee
TTITLE7=Stang's Swang
EXTD=
EXTT0=
EXTT1=
EXTT2=
EXTT3=
EXTT4=
EXTT5=
EXTT6=
EXTT7=
PLAYORDER=
